<svg xmlns="http://www.w3.org/2000/svg" width="180" height="216" viewBox="0 0 180 216">
  <g fill="none" fill-rule="evenodd">
    <g fill="#430098" transform="translate(44.5 43.713)">
      <path d="M85.5373565,92.0204225 C85.5373565,94.2093425 83.7573365,95.9911025 81.5666764,95.9911025 L10.0996561,95.9911025 C7.91073604,95.9911025 6.13071603,94.2093425 6.13071603,92.0204225 L6.13071603,10.6284421 C6.13071603,8.43778205 7.91073604,6.65776204 10.0996561,6.65776204 L81.5666764,6.65776204 C83.7573365,6.65776204 85.5373565,8.43778205 85.5373565,10.6284421 L85.5373565,92.0204225 Z M81.5666764,1.69528201 L10.0996561,1.69528201 C5.16675603,1.69528201 1.16649601,5.69380203 1.16649601,10.6284421 L1.16649601,92.0204225 C1.16649601,96.9533225 5.16675603,100.953583 10.0996561,100.953583 L81.5666764,100.953583 C86.4995765,100.953583 90.4998365,96.9533225 90.4998365,92.0204225 L90.4998365,10.6284421 C90.4998365,5.69380203 86.4995765,1.69528201 81.5666764,1.69528201 L81.5666764,1.69528201 Z"/>
      <polygon points="23.5 86.065 34.667 76.138 23.5 66.213"/>
      <path d="M63.8451243 45.8340363C61.8458643 43.8104162 58.1727243 41.3987762 52.0374843 41.3987762 45.3071642 41.3987762 38.3802242 43.1474762 33.4264442 44.7621962L33.4264442 16.5828961 23.4997441 16.5828961 23.4997441 59.6270163 30.5119442 56.4515163C30.6233042 56.3993163 41.9437442 51.3237363 52.0374843 51.3237363 57.0765243 51.3237363 58.1918643 54.1059963 58.2405843 56.4236763L58.2405843 86.0645765 68.1672844 86.0645765 68.1655444 56.2862163C68.1725044 55.6528563 68.1133444 50.1509763 63.8451243 45.8340363M50.7966903 32.7125222L60.7233903 32.7125222C65.2108504 27.6247622 67.4972104 22.2203221 68.1653704 16.5827221L58.2386703 16.5827221C57.1442103 22.2081421 54.6977703 27.5934422 50.7966903 32.7125222"/>
      <polygon points="1.167 112.121 4.824 112.121 4.824 117.149 9.322 117.149 9.322 112.121 12.98 112.121 12.98 125.653 9.322 125.653 9.322 120.184 4.824 120.184 4.824 125.653 1.167 125.653"/>
      <polygon points="17.691 112.121 27.346 112.121 27.346 115.157 21.348 115.157 21.348 117.351 25.627 117.351 25.627 120.205 21.348 120.205 21.348 122.708 27.658 122.708 27.658 125.653 17.691 125.653"/>
      <path d="M36.8309282 118.172275C38.3308082 118.172275 38.9885282 117.751195 38.9885282 116.618455 38.9885282 115.483975 38.3308082 115.082035 36.8309282 115.082035L35.2579682 115.082035 35.2579682 118.172275 36.8309282 118.172275zM31.6735682 112.120555L36.9596882 112.120555C40.4327282 112.120555 42.5555282 113.272435 42.5555282 116.526235 42.5555282 118.647295 41.6576882 119.873995 39.8846282 120.476035L42.7556282 125.650795 38.8789082 125.650795 36.2636882 120.952795 35.2579682 120.952795 35.2579682 125.650795 31.6735682 125.650795 31.6735682 112.120555zM56.0065983 118.885849C56.0065983 116.397649 54.9277983 114.882109 53.0259783 114.882109 51.1067583 114.882109 50.0279583 116.397649 50.0279583 118.885849 50.0279583 121.374049 51.1067583 122.983549 53.0259783 122.983549 54.9277983 122.983549 56.0065983 121.374049 56.0065983 118.885849M46.3704783 118.885849C46.3704783 113.930329 49.7530383 111.863209 53.0259783 111.863209 56.2815183 111.863209 59.6640783 113.930329 59.6640783 118.885849 59.6640783 123.841369 56.2815183 125.906749 53.0259783 125.906749 49.7530383 125.906749 46.3704783 123.841369 46.3704783 118.885849"/>
      <polygon points="63.735 112.121 67.394 112.121 67.394 117.022 71.123 112.121 75.367 112.121 70.811 117.461 75.767 125.653 71.634 125.653 68.434 120.239 67.394 121.445 67.394 125.653 63.735 125.653"/>
      <path d="M79.1447704,120.221473 L79.1447704,112.120033 L82.8022505,112.120033 L82.8022505,120.204073 C82.8022505,122.067613 83.4042905,122.908033 84.8693705,122.908033 C86.3309705,122.908033 86.9156105,122.067613 86.9156105,120.204073 L86.9156105,112.120033 L90.4982705,112.120033 L90.4982705,120.221473 C90.4982705,123.805873 88.7826305,125.853853 84.8310905,125.853853 C80.8830304,125.853853 79.1447704,123.805873 79.1447704,120.221473"/>
    </g>
    <text fill="#8EC640" font-family="BentonSans-Medium, BentonSans" font-size="12" font-weight="400">
      <tspan x="144" y="29">50%</tspan>
    </text>
    <text fill="#B8B8B9" font-family="BentonSans-Medium, BentonSans" font-size="12" font-weight="400">
      <tspan x="140" y="139">12.5%</tspan>
    </text>
    <path stroke="#E7E7E7" d="M1.000348,144.666015 L179.667029,144.666015 M1.000348,155.833335 L179.667029,155.833335 M1.000348,169.619355 L179.667029,169.619355 M45.6661482,0.74017401 L45.6661482,214.231215 M1.000348,45.4059743 L134.999489,45.4059743 L1.000348,45.4059743 Z M135.000707,45.4070183 L135.000707,214.232259 L135.000707,45.4070183 Z"/>
    <polyline stroke="#8EC640" stroke-width="1.241" points="135.001 2.086 135.001 45.407 178.32 45.407"/>
    <polygon fill="#8EC640" points="134.998 .742 129.926 6.198 130.836 7.044 135 2.562 139.165 7.044 140.074 6.198 135.002 .742"/>
    <polygon fill="#8EC640" points="173.363 41.241 177.846 45.409 173.363 49.574 174.211 50.483 179.666 45.409 174.211 40.335"/>
    <path stroke="#B8B8B9" stroke-width="1.241" d="M158.666241,145.287021 L158.666241,155.213721"/>
    <polygon fill="#B8B8B9" points="154.635 145.906 162.701 145.906 162.701 144.666 154.635 144.666"/>
    <polygon fill="#B8B8B9" points="155 155.641 163.067 155.641 163.067 154.4 155 154.4"/>
  </g>
</svg>
